<?xml version="1.0" encoding="iso-8859-1"?>
<!-- Generator: Adobe Illustrator 19.0.0, SVG Export Plug-In . SVG Version: 6.00 Build 0)  -->
<svg version="1.1" id="Capa_1" xmlns="http://www.w3.org/2000/svg" xmlns:xlink="http://www.w3.org/1999/xlink" x="0px" y="0px"
	 viewBox="0 0 511.993 511.993" style="enable-background:new 0 0 511.993 511.993;" xml:space="preserve">
<linearGradient id="SVGID_1_" gradientUnits="userSpaceOnUse" x1="69.654" y1="448.2119" x2="416.1364" y2="101.7296" gradientTransform="matrix(1.0449 0 0 -1.0449 2.1993 543.3086)">
	<stop  offset="0" style="stop-color:#FF597A"/>
	<stop  offset="1" style="stop-color:#BD0019"/>
</linearGradient>
<circle style="fill:url(#SVGID_1_);" cx="255.996" cy="255.996" r="255.996"/>
<linearGradient id="SVGID_2_" gradientUnits="userSpaceOnUse" x1="59.8952" y1="274.9677" x2="415.8952" y2="274.9677" gradientTransform="matrix(1.0449 0 0 -1.0449 2.1993 543.3086)">
	<stop  offset="0" style="stop-color:#E1E1E3"/>
	<stop  offset="0.263" style="stop-color:#DCDCDF"/>
	<stop  offset="0.562" style="stop-color:#CFCFD2"/>
	<stop  offset="0.878" style="stop-color:#B9B8BD"/>
	<stop  offset="1" style="stop-color:#AEADB3"/>
</linearGradient>
<path style="fill:url(#SVGID_2_);" d="M479.905,212.123v-0.002l0,0c0-57.151-44.801-103.834-101.199-106.855v-0.159H133.293v0.159
	C76.895,108.286,32.094,154.97,32.094,212.121c0,5.756,0.46,11.404,1.335,16.914c4.673,47.358,24.345,177.858,99.264,177.858
	c56.102,0,86.042-73.177,100.817-129.825h44.981c14.774,56.647,44.715,129.825,100.817,129.825
	c74.919,0,94.591-130.502,99.264-177.859C479.446,223.525,479.905,217.878,479.905,212.123z"/>
<linearGradient id="SVGID_3_" gradientUnits="userSpaceOnUse" x1="59.8952" y1="316.9608" x2="415.8952" y2="316.9608" gradientTransform="matrix(1.0449 0 0 -1.0449 2.1993 543.3086)">
	<stop  offset="0" style="stop-color:#78777F"/>
	<stop  offset="1" style="stop-color:#57555C"/>
</linearGradient>
<circle style="fill:url(#SVGID_3_);" cx="139.105" cy="212.122" r="107.017"/>
<linearGradient id="SVGID_4_" gradientUnits="userSpaceOnUse" x1="59.8952" y1="316.9608" x2="415.8952" y2="316.9608" gradientTransform="matrix(1.0449 0 0 -1.0449 2.1993 543.3086)">
	<stop  offset="0" style="stop-color:#FFFFFF"/>
	<stop  offset="1" style="stop-color:#C8C6CC"/>
</linearGradient>
<circle style="fill:url(#SVGID_4_);" cx="372.887" cy="212.122" r="107.017"/>
<linearGradient id="SVGID_5_" gradientUnits="userSpaceOnUse" x1="59.8952" y1="316.9612" x2="415.8952" y2="316.9612" gradientTransform="matrix(1.0449 0 0 -1.0449 2.1993 543.3086)">
	<stop  offset="0" style="stop-color:#57565C"/>
	<stop  offset="1" style="stop-color:#000000"/>
</linearGradient>
<polygon style="fill:url(#SVGID_5_);" points="188.384,194.266 156.963,194.266 156.963,162.845 121.252,162.845 121.252,194.266 
	89.832,194.266 89.832,229.977 121.252,229.977 121.252,261.397 156.963,261.397 156.963,229.977 188.384,229.977 "/>
<g>
	
		<linearGradient id="SVGID_6_" gradientUnits="userSpaceOnUse" x1="59.8952" y1="316.9608" x2="415.8952" y2="316.9608" gradientTransform="matrix(1.0449 0 0 -1.0449 2.1993 543.3086)">
		<stop  offset="0" style="stop-color:#FFC06B"/>
		<stop  offset="1" style="stop-color:#E66900"/>
	</linearGradient>
	<circle style="fill:url(#SVGID_6_);" cx="410.002" cy="212.122" r="17.983"/>
	
		<linearGradient id="SVGID_7_" gradientUnits="userSpaceOnUse" x1="59.8952" y1="316.9608" x2="415.8952" y2="316.9608" gradientTransform="matrix(1.0449 0 0 -1.0449 2.1993 543.3086)">
		<stop  offset="0" style="stop-color:#FFC06B"/>
		<stop  offset="1" style="stop-color:#E66900"/>
	</linearGradient>
	<circle style="fill:url(#SVGID_7_);" cx="335.784" cy="212.122" r="17.983"/>
</g>
<g>
	
		<linearGradient id="SVGID_8_" gradientUnits="userSpaceOnUse" x1="59.8952" y1="281.4507" x2="415.8952" y2="281.4507" gradientTransform="matrix(1.0449 0 0 -1.0449 2.1993 543.3086)">
		<stop  offset="0" style="stop-color:#2499FF"/>
		<stop  offset="1" style="stop-color:#004DB1"/>
	</linearGradient>
	<circle style="fill:url(#SVGID_8_);" cx="372.887" cy="249.225" r="17.983"/>
	
		<linearGradient id="SVGID_9_" gradientUnits="userSpaceOnUse" x1="59.8952" y1="352.4707" x2="415.8952" y2="352.4707" gradientTransform="matrix(1.0449 0 0 -1.0449 2.1993 543.3086)">
		<stop  offset="0" style="stop-color:#2499FF"/>
		<stop  offset="1" style="stop-color:#004DB1"/>
	</linearGradient>
	<circle style="fill:url(#SVGID_9_);" cx="372.887" cy="175.018" r="17.983"/>
</g>
<g>
</g>
<g>
</g>
<g>
</g>
<g>
</g>
<g>
</g>
<g>
</g>
<g>
</g>
<g>
</g>
<g>
</g>
<g>
</g>
<g>
</g>
<g>
</g>
<g>
</g>
<g>
</g>
<g>
</g>
</svg>
